<?xml version="1.0" encoding="UTF-8"?>
<svg version="1.1"
    xmlns="http://www.w3.org/2000/svg" width="324" height="724" viewBox="400 142 300 780">
    <path d="M0 0 C337.92 0 675.84 0 1024 0 C1024 337.92 1024 675.84 1024 1024 C686.08 1024 348.16 1024 0 1024 C0 686.08 0 348.16 0 0 Z " fill="#FEFEFE" transform="translate(0,0)"/>
    <path d="M0 0 C0.94875 0.31453125 1.8975 0.6290625 2.875 0.953125 C16.18577143 5.67844886 29.35439958 12.66628165 40 22 C40.73089844 22.60070312 41.46179688 23.20140625 42.21484375 23.8203125 C48.28087522 28.94273908 53.1540688 34.73236448 58 41 C58.66902344 41.81855469 59.33804688 42.63710937 60.02734375 43.48046875 C68.86748709 54.7713449 75.38582006 69.14564355 79 83 C79.29648437 84.11246094 79.59296875 85.22492188 79.8984375 86.37109375 C86.78525333 116.72994704 80.703788 148.40625546 65 175 C52.71197058 193.56323305 35.60953474 209.94636333 15 219 C14.01 219 13.02 219 12 219 C12 235.5 12 252 12 269 C26.19 269 40.38 269 55 269 C53.8733445 279.13989953 53.8733445 279.13989953 52.6953125 284.25 C52.44136719 285.3534375 52.18742188 286.456875 51.92578125 287.59375 C51.66152344 288.7178125 51.39726563 289.841875 51.125 291 C50.74021484 292.68609375 50.74021484 292.68609375 50.34765625 294.40625 C49.02767536 300.08415776 47.55543817 305.6121146 45.63867188 311.1171875 C44.81420611 313.54772268 44.22959816 315.99233504 43.6875 318.5 C42.18550758 325.22320416 40.60362211 331.92529204 39 338.625 C38.75080811 339.67365234 38.50161621 340.72230469 38.24487305 341.80273438 C37.04748819 346.80420032 35.80305995 351.78203002 34.4296875 356.73828125 C33.16300551 361.31909089 32.10159125 365.91267938 31.125 370.5625 C29.82050857 376.60702395 28.3363517 382.55837119 26.625 388.5 C24.171752 397.04157287 22.19188934 405.67010588 20.23095703 414.33618164 C18.77436697 420.74060565 17.2250679 427.10041643 15.5 433.4375 C13.07668823 442.3580827 11.0888938 451.36470035 9.14257812 460.40014648 C7.63827544 467.3369395 5.92454244 474.16730495 4 481 C0.7 481 -2.6 481 -6 481 C-5.99777939 479.55385409 -5.99555878 478.10770819 -5.99327087 476.61773968 C-5.94224557 442.22191875 -5.93270754 407.82631389 -5.97365963 373.4304765 C-5.97867374 369.18892149 -5.98334071 364.94736618 -5.98779297 360.70581055 C-5.9886851 359.86145985 -5.98957723 359.01710915 -5.9904964 358.14717207 C-6.00408007 344.50910673 -5.98959745 330.8712102 -5.96458304 317.23316725 C-5.93951081 303.2197041 -5.9449698 289.20648778 -5.97825909 275.19304067 C-5.99782284 266.5588903 -5.99410267 257.92541466 -5.95976371 249.29130767 C-5.93844689 243.3554612 -5.94701838 237.42010614 -5.97815877 231.48430546 C-5.99522433 228.06863981 -5.99555052 224.65527833 -5.96898079 221.23952103 C-5.85838542 205.91508602 -6.79266511 193.47216792 -14.05555266 179.7820003 C-15.34042231 177.35768503 -16.46842573 174.86722649 -17.60473633 172.37060547 C-18.34099719 170.86642996 -19.08324745 169.36516842 -19.83203125 167.8671875 C-20.2353215 167.05299347 -20.63861176 166.23879944 -21.05412292 165.39993286 C-21.88520132 163.72719847 -22.71924751 162.055935 -23.55639648 160.38623047 C-24.84042515 157.81917141 -26.10687134 155.24387258 -27.37304688 152.66796875 C-28.19167327 151.02552536 -29.01129477 149.38357749 -29.83203125 147.7421875 C-30.20705276 146.97574921 -30.58207428 146.20931091 -30.96846008 145.41964722 C-32.95960257 141.12248252 -32.95960257 141.12248252 -37 139 C-45.77092392 156.16161686 -45.77092392 156.16161686 -53.62890625 173.75 C-55.50903342 178.20659775 -57.56820809 182.57242271 -59.6418457 186.94165039 C-63.15912411 194.19576938 -63.15912411 194.19576938 -64.26171303 202.06618977 C-64.26917852 203.06891275 -64.27664401 204.07163573 -64.28433573 205.10474426 C-64.282401 206.19910031 -64.28046626 207.29345637 -64.2784729 208.42097473 C-64.2842653 209.58905928 -64.2900577 210.75714383 -64.29602563 211.96062487 C-64.31008792 215.19881012 -64.31525587 218.43686918 -64.31667423 221.67508018 C-64.32036966 225.16857424 -64.33552586 228.66202078 -64.34928894 232.15548706 C-64.37156109 238.20681574 -64.38657464 244.2581275 -64.39665604 250.3094883 C-64.41124252 259.05873008 -64.43677926 267.80791295 -64.46498732 276.55712017 C-64.51045586 290.75217584 -64.54707042 304.94724 -64.578125 319.14233398 C-64.60831029 332.93141163 -64.64266046 346.72046854 -64.68261719 360.50952148 C-64.68507874 361.35950161 -64.68754028 362.20948173 -64.69007643 363.08521882 C-64.70245102 367.34932616 -64.71490756 371.61343325 -64.72740483 375.87754023 C-64.83097356 411.25166517 -64.92002913 446.62581419 -65 482 C-68.3 482 -71.6 482 -75 482 C-76.90043554 478.19912892 -77.74144922 475.19264594 -78.62109375 471.06640625 C-78.76652115 470.39262436 -78.91194855 469.71884247 -79.06178284 469.02464294 C-79.52544998 466.87165095 -79.98173539 464.71717729 -80.4375 462.5625 C-81.03862146 459.7509276 -81.64239955 456.93992722 -82.24609375 454.12890625 C-82.39449203 453.43621643 -82.54289032 452.74352661 -82.69578552 452.02984619 C-84.95469257 441.51314034 -87.44428295 431.05769096 -90.0625 420.625 C-90.31837891 419.59761719 -90.57425781 418.57023437 -90.83789062 417.51171875 C-91.8689385 413.39282827 -92.91495851 409.29325695 -94.09765625 405.21484375 C-95.37503516 400.66383576 -96.17119241 396.04861969 -97.0234375 391.40234375 C-97.78866048 387.65512249 -98.83691956 384.01494771 -99.90625 380.34375 C-101.90329081 373.46551044 -103.55273929 366.54806499 -105.125 359.5625 C-108.8843995 343.15002391 -113.08955885 326.85917656 -117.30984497 310.5602417 C-119.10863577 303.60390598 -120.85786105 296.63563886 -122.55517578 289.65380859 C-123.27775141 286.71412892 -124.03991966 283.89590394 -125.125 281.06640625 C-126 278 -126 278 -126 269 C-112.14 269 -98.28 269 -84 269 C-84 252.5 -84 236 -84 219 C-85.32 218.67 -86.64 218.34 -88 218 C-111.25817741 209.12042451 -130.19401491 186.85447433 -141 165 C-145.88420553 154.06807401 -149.92528603 142.81386717 -152 131 C-152.27457031 129.62908203 -152.27457031 129.62908203 -152.5546875 128.23046875 C-156.66443439 98.41677857 -148.79859119 67.46008867 -131.12719727 43.22631836 C-122.22286513 31.50903812 -112.09610481 21.3754443 -100 13 C-99.24203125 12.45214844 -98.4840625 11.90429688 -97.703125 11.33984375 C-70.44673874 -6.78275349 -30.60124739 -10.6357994 0 0 Z " fill="#141414" transform="translate(567,149)"/>
    <path d="M0 0 C3.98453921 0.72715752 7.10868266 1.89042499 10.75 3.6875 C16.68200744 6.50166053 22.67956685 8.75809342 28.91113281 10.8190918 C33.17532878 12.25456875 37.09046149 13.99477367 41.08666992 16.05859375 C43.89216292 17.43896647 46.79170986 18.43404243 49.75 19.4375 C55.33226918 21.38175187 60.78247407 23.51517953 66.22265625 25.82421875 C68.69989044 26.8729494 71.18676046 27.8839818 73.6875 28.875 C78.48928823 30.78784351 83.27809302 32.7316634 88.0625 34.6875 C88.8258667 34.9973584 89.5892334 35.3072168 90.37573242 35.62646484 C95.88497332 37.88497332 95.88497332 37.88497332 97 39 C97.28289181 41.25415378 97.4477119 43.50840656 97.62109375 45.7734375 C97.89200825 48.27920078 97.89200825 48.27920078 100 51 C102.85457221 51.29680793 105.49248781 51.39893508 108.34936523 51.37231445 C109.21290619 51.37596512 110.07644714 51.37961578 110.96615601 51.38337708 C113.83049987 51.39150571 116.69428205 51.37785227 119.55859375 51.36328125 C121.54395039 51.36276287 123.52930756 51.3632797 125.5146637 51.36479187 C129.68018229 51.36470204 133.84550778 51.35425151 138.01098633 51.33618164 C143.35565787 51.31350888 148.7000467 51.31294657 154.04475307 51.31969929 C158.14620993 51.32303812 162.24760211 51.31641053 166.34904671 51.30657005 C168.3198621 51.30271519 170.29068469 51.30157102 172.26150322 51.3031559 C175.01488869 51.30352601 177.76790945 51.290921 180.52124023 51.2746582 C181.74867195 51.27837433 181.74867195 51.27837433 183.00090027 51.28216553 C186.85689334 51.24574477 188.71609313 51.18927124 192 49 C192.58348752 46.3443272 192.58348752 46.3443272 192.6875 43.375 C192.79166667 41.58333333 192.89583333 39.79166667 193 38 C203.87992058 33.23885721 214.88177486 28.83399287 225.9375 24.5 C229.1969038 23.21948534 232.45588794 21.93790434 235.71484375 20.65625 C236.50737045 20.34471481 237.29989716 20.03317963 238.11643982 19.71220398 C247.67493089 15.95233017 257.21197332 12.14114083 266.72265625 8.26171875 C267.77517578 7.83439453 268.82769531 7.40707031 269.91210938 6.96679688 C272.04936271 6.09891037 274.18472591 5.22635738 276.31835938 4.34960938 C277.35927734 3.92873047 278.40019531 3.50785156 279.47265625 3.07421875 C280.39312744 2.69869873 281.31359863 2.32317871 282.26196289 1.9362793 C285.16559661 0.94337378 287.96515782 0.42342091 291 0 C291.08040527 0.59425781 291.16081055 1.18851563 291.24365234 1.80078125 C291.61619063 4.53450013 291.99555027 7.26723223 292.375 10 C292.56449219 11.40185547 292.56449219 11.40185547 292.7578125 12.83203125 C293.41561262 17.53530213 294.26243258 22.01249261 295.48852539 26.60522461 C296.33397157 30.56368836 296.74507297 34.58095018 297.22038269 38.59706116 C298.10919486 46.07322435 299.25921184 53.50217263 300.4375 60.9375 C300.66004544 62.35464679 300.88253836 63.77180183 301.10498047 65.18896484 C302.2071127 72.18082402 303.34849467 79.16256027 304.625 86.125 C305.8414047 92.8387475 306.77346081 99.5648978 307.65795898 106.32958984 C309.22464846 118.06219712 311.14202905 129.74230232 313.01879883 141.4284668 C313.2143486 142.65073219 313.2143486 142.65073219 313.41384888 143.89768982 C313.66172717 145.44590653 313.9109979 146.9939011 314.16183472 148.54164124 C315 153.77629916 315 153.77629916 315 156 C315.74058151 155.99333817 316.48116302 155.98667633 317.2441864 155.97981262 C324.23274794 155.91963367 331.22127061 155.8739911 338.21002483 155.84456348 C341.80280829 155.82892561 345.39537715 155.80772221 348.98803711 155.77368164 C352.45694391 155.74102035 355.92564464 155.72313286 359.39469337 155.71536827 C361.35838752 155.70714982 363.32199908 155.68374108 365.28556824 155.66011047 C367.08686943 155.65977058 367.08686943 155.65977058 368.92456055 155.65942383 C369.97935104 155.65276199 371.03414154 155.64610016 372.12089539 155.63923645 C375.44770579 156.05609936 377.31166464 157.02806482 380 159 C382.39908386 162.99847309 382.8865557 167.45180267 382 172 C380.73090633 175.33466479 379.05042544 177.14976327 376 179 C369.97737125 180.08382016 363.98885121 179.92746522 357.88670349 179.86196899 C355.99179474 179.8671694 354.09689233 179.87543581 352.20200878 179.88650739 C346.99155234 179.90800756 341.78205389 179.88576173 336.57166922 179.85643649 C330.95401291 179.8324064 325.33645667 179.84869024 319.71878052 179.85998535 C308.71275697 179.87571306 297.70710589 179.85408935 286.70113616 179.81999679 C273.89112595 179.78172181 261.08119307 179.7804099 248.27113546 179.78072636 C224.72865293 179.78001845 201.18640085 179.74273105 177.64399875 179.68805919 C156.14716677 179.63830296 134.65045378 179.61293488 113.15356445 179.61083984 C112.46999726 179.61076835 111.78643007 179.61069686 111.08214873 179.6106232 C109.70283939 179.6104791 108.32353005 179.61033707 106.94422071 179.61019713 C103.50891029 179.60984757 100.07359987 179.60947669 96.63828945 179.60907936 C95.96057179 179.60900585 95.28285413 179.60893233 94.58459958 179.60885659 C72.77477387 179.6062291 50.96497147 179.58051829 29.15516553 179.55222327 C21.49130061 179.54260589 13.82744191 179.53648348 6.16357189 179.5329227 C-5.99150221 179.52726271 -18.14647862 179.51222191 -30.30150647 179.47709651 C-35.85749862 179.46123401 -41.41339105 179.45009975 -46.96940804 179.45182419 C-52.05140415 179.4532244 -57.13316929 179.4408305 -62.21510898 179.41720764 C-64.05752668 179.4110586 -65.89996946 179.40998954 -67.74239213 179.41440101 C-70.23958547 179.41960851 -72.73602805 179.40651684 -75.23314762 179.38869667 C-76.31546423 179.39751683 -76.31546423 179.39751683 -77.41964582 179.40651518 C-82.78642076 179.3379033 -85.87326856 177.90672474 -89.8125 174.375 C-91.67759504 170.64480993 -91.52624769 167.08572861 -91 163 C-89.61009808 159.44802843 -88.54947867 158.32363391 -85.2638855 156.38847351 C-81.82772615 154.92671382 -79.60917135 154.63556327 -75.90283203 154.65942383 C-74.13167526 154.65976372 -74.13167526 154.65976372 -72.32473755 154.66011047 C-70.43535965 154.68333626 -70.43535965 154.68333626 -68.5078125 154.70703125 C-67.20673553 154.71127609 -65.90565857 154.71552094 -64.56515503 154.71989441 C-61.12254237 154.73129521 -57.68031533 154.76072026 -54.237854 154.79400635 C-50.71851822 154.82481083 -47.19911953 154.8384218 -43.6796875 154.85351562 C-36.78630091 154.88559538 -29.89316902 154.93673316 -23 155 C-22.91926743 154.4029425 -22.83853485 153.80588501 -22.75535583 153.19073486 C-21.24528889 142.0356528 -19.72974951 130.88289529 -18.0625 119.75 C-17.8962915 118.63431641 -17.73008301 117.51863281 -17.55883789 116.36914062 C-15.37269678 101.73873263 -13.1396071 87.11498859 -10.80761719 72.50708008 C-9.57785664 64.79998575 -8.4290115 57.08593681 -7.34228516 49.35742188 C-5.89350635 39.12507375 -4.34866721 28.90701326 -2.8125 18.6875 C-2.67403656 17.7662735 -2.53557312 16.845047 -2.39291382 15.89590454 C-1.59626274 10.59712083 -0.79855235 5.29849749 0 0 Z " fill="#141414" transform="translate(386,739)"/>
    <path d="M0 0 C2.55396377 7.80449843 4.65391668 15.54384842 6.19140625 23.61328125 C6.93573736 27.07971964 6.93573736 27.07971964 8.3984375 30.55859375 C10.68389966 36.42613928 11.7746505 42.60389473 13.0625 48.75 C13.56925402 51.16250653 14.08077168 53.57401866 14.59765625 55.984375 C14.93035522 57.57330566 14.93035522 57.57330566 15.26977539 59.19433594 C15.93172953 61.73769164 16.80312641 63.68320109 18 66 C18.40670116 67.440596 18.76348967 68.89591087 19.078125 70.359375 C19.26632812 71.21571533 19.45453125 72.07205566 19.6484375 72.9543457 C19.84695313 73.87691162 20.04546875 74.79947754 20.25 75.75 C23.75537013 91.57035832 27.48471154 107.32623972 32.24169922 122.82128906 C34.07647492 128.93720808 35.38182133 135.13608023 36.56884766 141.4074707 C37.28260634 145.07034691 38.11131697 148.47491887 39.49609375 151.9453125 C41.28179009 156.46145016 42.08994102 161.04577731 42.9375 165.8125 C44.1547838 172.31258214 45.63418571 178.30818035 48.1171875 184.45703125 C49.74983259 189.15991601 50.34742977 194.07996396 51 199 C51.99 199 52.98 199 54 199 C53.72414063 199.54140625 53.44828125 200.0828125 53.1640625 200.640625 C51.84259131 203.31904312 50.60599624 206.02885041 49.375 208.75 C48.92898438 209.73484375 48.48296875 210.7196875 48.0234375 211.734375 C47.68570313 212.48203125 47.34796875 213.2296875 47 214 C42.23265363 213.39124654 38.04206002 212.01134753 33.625 210.1875 C32.69300781 209.8152832 32.69300781 209.8152832 31.7421875 209.43554688 C28.34116726 208.05476077 25.03713391 206.54873002 21.75927734 204.89575195 C21.05153168 204.53955276 20.34378601 204.18335358 19.61459351 203.81636047 C18.81536972 203.41226204 18.81536972 203.41226204 18 203 C17.99857498 202.16950134 17.99714996 201.33900269 17.99568176 200.4833374 C17.97784974 192.65531369 17.93623087 184.82785535 17.86790943 177.000103 C17.83362295 172.9757416 17.80852698 168.95176046 17.80444336 164.92724609 C17.80016378 161.04302329 17.77173118 157.15965851 17.72656822 153.27570343 C17.71358201 151.79420215 17.70928958 150.31259824 17.71384621 148.83104706 C17.71874502 146.75458737 17.69270105 144.68064256 17.65942383 142.60449219 C17.64943108 140.83244415 17.64943108 140.83244415 17.63923645 139.02459717 C17.24807298 135.81479359 17.24807298 135.81479359 14.61723328 133.61602783 C11.73865565 131.83863122 10.27968369 131.51135542 6.9375 131.625 C6.10089844 131.63789062 5.26429688 131.65078125 4.40234375 131.6640625 C1.62343111 131.92242191 1.62343111 131.92242191 -2 134 C-2.33 162.05 -2.66 190.1 -3 219 C-1.02 219.33 0.96 219.66 3 220 C4.66850092 220.60771416 6.31440651 221.27973663 7.9375 222 C14.08080763 224.6372397 20.27703111 227.11916852 26.5 229.5625 C28.00784058 230.15877197 28.00784058 230.15877197 29.54614258 230.76708984 C34.6986936 232.78585891 39.80724248 234.60092806 45.125 236.125 C49.67384168 237.56044139 51.44174359 239.17954635 53.8046875 243.2578125 C57.46798469 248.59712801 64.02604808 250.50253328 70 252 C73.42353872 252.30107447 73.42353872 252.30107447 76.99383545 252.26742554 C77.99571895 252.27422221 77.99571895 252.27422221 79.01784253 252.28115618 C81.23690197 252.29373006 83.45571376 252.29218441 85.67480469 252.29052734 C87.27373568 252.29651705 88.87266379 252.30332361 90.47158813 252.31088257 C94.80236816 252.32850622 99.13306907 252.33323645 103.46388149 252.33451414 C106.17381798 252.33593852 108.88373455 252.34021358 111.59366608 252.34550858 C121.05985281 252.36399783 130.52598331 252.3721807 139.9921875 252.37060547 C148.79622625 252.36940483 157.60001956 252.39049475 166.40399623 252.4220928 C173.97878056 252.44830393 181.55348496 252.45897072 189.12831426 252.45769465 C193.645229 252.45718638 198.16192556 252.46279455 202.67879486 252.48405075 C206.93067702 252.50351455 211.18213469 252.50350245 215.43403244 252.48901749 C216.98715464 252.48693824 218.54030399 252.49157711 220.09337997 252.5037384 C230.30866605 252.5784946 239.14249699 251.73883171 247.9375 246.125 C250.14935207 244.06015868 250.14935207 244.06015868 251.42578125 241.1484375 C254.56944206 236.3803949 260.08322387 235.25177256 265.25 233.5 C267.4283896 232.72397008 269.60677501 231.9479284 271.78515625 231.171875 C272.84879395 230.80126953 273.91243164 230.43066406 275.00830078 230.04882812 C278.92473361 228.67580745 282.8072822 227.22153774 286.6875 225.75 C287.92113281 225.28851562 289.15476562 224.82703125 290.42578125 224.3515625 C292.88706034 223.42084931 295.3422558 222.48101337 297.79296875 221.5234375 C299.56607422 220.83121094 299.56607422 220.83121094 301.375 220.125 C302.41398437 219.71507812 303.45296875 219.30515625 304.5234375 218.8828125 C307 218 307 218 309 218 C308.91564867 207.50787058 308.82078553 197.01589404 308.71247292 186.523983 C308.66251081 181.65224815 308.6161807 176.78053497 308.578125 171.90869141 C308.5412712 167.20776599 308.49491088 162.50702195 308.44193649 157.80625153 C308.42339307 156.01213002 308.40828491 154.21796963 308.39665604 152.42378998 C308.37979272 149.91222022 308.35075761 147.4010658 308.31884766 144.88964844 C308.31668747 144.14661972 308.31452728 143.403591 308.31230164 142.63804626 C308.23953803 137.49282104 308.23953803 137.49282104 306 133 C301.66052737 131.55350912 297.53000056 131.33531092 293 132 C290.17575712 134.19022918 288.58491397 135.83017207 287 139 C286.87951849 141.06223352 286.82259073 143.12828629 286.79467773 145.19384766 C286.77473251 146.49504547 286.75478729 147.79624329 286.73423767 149.13687134 C286.71725327 150.5626005 286.70037447 151.98833093 286.68359375 153.4140625 C286.66302479 154.86852613 286.64202834 156.32298377 286.62062073 157.7774353 C286.56539396 161.60786088 286.5159874 165.43834045 286.46777344 169.26885986 C286.4175628 173.1766847 286.36187446 177.084431 286.30664062 180.9921875 C286.19905167 188.66139185 286.09760838 196.33066145 286 204 C285.39003174 204.23187012 284.78006348 204.46374023 284.15161133 204.70263672 C281.37173901 205.7596485 278.59211741 206.81731806 275.8125 207.875 C274.85279297 208.23980469 273.89308594 208.60460937 272.90429688 208.98046875 C271.50727539 209.51220703 271.50727539 209.51220703 270.08203125 210.0546875 C269.22843018 210.37937012 268.3748291 210.70405273 267.49536133 211.03857422 C265.77447498 211.70160625 264.06626579 212.39817831 262.36987305 213.12158203 C260 214 260 214 257 214 C256.49384702 212.73160474 255.99530901 211.46016898 255.5 210.1875 C255.08234375 209.12595703 255.08234375 209.12595703 254.65625 208.04296875 C254 206 254 206 254 203 C253.34 203 252.68 203 252 203 C252 202.01 252 201.02 252 200 C252.66 200 253.32 200 254 200 C254.14695312 199.195625 254.14695312 199.195625 254.296875 198.375 C255.9954767 189.47198422 258.28658999 180.71975498 260.52490234 171.94140625 C261.03952149 169.9197921 261.5518071 167.89760943 262.0625 165.875 C262.31253784 164.88669189 262.31253784 164.88669189 262.56762695 163.87841797 C263.6771629 159.43917941 264.64473812 154.98364917 265.5625 150.5 C266.47018753 146.13915338 267.5660303 142.14618273 269.27319336 138.04101562 C270.0605641 135.82992412 270.49442761 133.69996832 270.91015625 131.390625 C271.92128619 126.15282848 273.34623172 121.10657139 274.875 116 C277.0695468 108.5102929 278.97480583 101.02265478 280.60107422 93.39086914 C281.85575379 87.53069302 283.36256909 81.76220939 284.94750977 75.98193359 C286.00774235 72.03671335 286.9340214 68.06331072 287.84765625 64.08203125 C289.69491014 56.13728676 291.7424403 48.25687105 293.86380005 40.38153076 C297.47278961 26.97265342 300.90341762 13.53782245 304 0 C310.35703921 0.3513342 315.26134338 1.58127568 320.875 4.5625 C321.56263428 4.91892578 322.25026855 5.27535156 322.95874023 5.64257812 C338.42338388 13.85766248 349.61393663 24.66444994 355.18029022 41.58859825 C357.78512969 51.51957745 358.57619619 60.68716229 358.51757812 70.92431641 C358.52301607 72.54926678 358.53014799 74.17421222 358.53881836 75.79914856 C358.55685332 80.16069831 358.55006824 84.52186416 358.53730202 88.88341951 C358.52707373 93.47725126 358.53659434 98.07105324 358.54284668 102.66488647 C358.55009331 110.37267881 358.54061273 118.08031707 358.52148438 125.78808594 C358.49970591 134.66555251 358.50678614 143.54265165 358.52879 152.42010939 C358.54701105 160.08176561 358.54947018 167.74331201 358.53903532 175.40498292 C358.53283905 179.96375121 358.53185735 184.52234744 358.54518127 189.08110428 C358.55683804 193.3676242 358.54853726 197.65367556 358.52560425 201.94014549 C358.52036978 203.50167632 358.52173918 205.06324743 358.53065491 206.62476158 C358.62173055 224.21347249 354.36052752 238.93315662 342 252 C341.34 252 340.68 252 340 252 C340 252.66 340 253.32 340 254 C330.54165794 260.99630075 319.280702 264.98385285 308.26611328 268.76733398 C303.27311202 270.4985896 298.51922385 272.5161507 293.7421875 274.78125 C289.47163123 276.67927501 285.06968285 278.17343836 280.65234375 279.69140625 C276.05056086 281.34017338 271.53193461 283.16968974 267 285 C265.32205525 285.66777502 263.64367302 286.33445185 261.96484375 287 C261.13533203 287.33 260.30582031 287.66 259.45117188 288 C257.77201759 288.66800854 256.09232688 289.33467025 254.41210938 290 C250.35644487 291.61595348 246.33621883 293.27702112 242.35546875 295.0703125 C238.4159533 296.8407842 234.43199815 298.39736464 230.375 299.875 C223.52138221 302.39833652 216.75836668 305.10227098 210.01171875 307.8984375 C207 309 207 309 204 309 C204 309.66 204 310.32 204 311 C202.68 311 201.36 311 200 311 C199.67 298.79 199.34 286.58 199 274 C186.89157724 273.97745043 174.78316831 273.95908576 162.67472935 273.94818783 C157.05292038 273.94295864 151.43112647 273.93586034 145.80932617 273.92456055 C140.38881723 273.91373294 134.9683228 273.90772344 129.54780388 273.90512276 C127.47485055 273.90326828 125.40189806 273.89964723 123.32895088 273.89426994 C120.43616107 273.8870612 117.54343204 273.88600899 114.65063477 273.88647461 C113.35159966 273.8810817 113.35159966 273.8810817 112.02632141 273.87557983 C108.20484512 273.50652963 108.20484512 273.50652963 105 275 C104.83996512 277.66426685 104.74057111 280.30560428 104.68359375 282.97265625 C104.66281265 283.77029892 104.64203156 284.56794159 104.62062073 285.38975525 C104.55503842 287.94724611 104.49620033 290.5048428 104.4375 293.0625 C104.39432301 294.79232882 104.35070899 296.52214679 104.30664062 298.25195312 C104.19934828 302.5011926 104.09810574 306.7505389 104 311 C98.89780287 310.34677622 94.82999623 309.29461282 90.125 307.1875 C88.99320313 306.68605469 87.86140625 306.18460938 86.6953125 305.66796875 C84.75376992 304.7946719 82.81522434 303.91544057 80.87939453 303.02954102 C75.54201966 300.61229807 70.14239994 298.52920978 64.625 296.5625 C58.38864307 294.3081617 52.3326797 291.88840822 46.3359375 289.046875 C44.08226445 288.03686768 41.85344914 287.24319447 39.5 286.5 C36.23706627 285.46959987 33.21719906 284.21522663 30.125 282.75 C24.21184782 279.98551784 18.13205531 277.77672454 11.98876953 275.58691406 C7.24926002 273.8841318 2.65369511 271.99706401 -1.93261719 269.91723633 C-4.6828751 268.69702861 -7.48739162 267.65830812 -10.3125 266.625 C-28.27457523 259.69080352 -41.06837852 250.87003875 -49 233 C-52.58138193 224.24632412 -52.43920908 215.52021436 -52.41992188 206.23779297 C-52.42727307 204.55786071 -52.43586234 202.8779335 -52.44558716 201.19801331 C-52.46770723 196.65837458 -52.47073843 192.1189179 -52.46883965 187.57923269 C-52.46871944 183.77518536 -52.47730421 179.97117589 -52.48561716 176.16713917 C-52.50481903 167.18171262 -52.50774763 158.19637894 -52.50097656 149.2109375 C-52.49434615 139.97800946 -52.51716725 130.74548197 -52.55429029 121.51263511 C-52.58510904 113.55553814 -52.59633395 105.59856917 -52.59245348 97.64141381 C-52.59039762 92.90246064 -52.59568295 88.16381896 -52.62034607 83.42492294 C-52.64281144 78.96114817 -52.64057335 74.49801805 -52.62041855 70.03423882 C-52.61704256 68.40903777 -52.62194764 66.78379163 -52.63640213 65.15865135 C-52.7660246 49.48580761 -49.69016061 35.73738093 -40 23 C-39.41605469 22.22269531 -38.83210938 21.44539063 -38.23046875 20.64453125 C-31.05197669 11.86410201 -12.45775959 -3.85818674 0 0 Z " fill="#151515" transform="translate(379,442)"/>
    <path d="M0 0 C0.66 0 1.32 0 2 0 C9.48912606 14.65896681 10.01689265 28.18594291 9.89700234 44.43756223 C9.87886048 47.95883157 9.90166218 51.47988906 9.91912842 55.00112915 C9.94385052 61.08074755 9.94346196 67.15993087 9.92530632 73.2395668 C9.899095 82.02926598 9.91185978 90.81858104 9.93369765 99.60827659 C9.9681015 113.87382763 9.9716142 128.13920846 9.95532227 142.40478516 C9.93957681 156.25053124 9.93861492 170.09615023 9.95727539 183.94189453 C9.95842332 184.79742023 9.95957125 185.65294594 9.96075397 186.53439666 C9.96660398 190.82693812 9.97274189 195.11947912 9.97902286 199.41201997 C10.03063897 234.94138936 10.03196258 270.47061115 10 306 C10.86364166 306.00142502 11.72728333 306.00285004 12.61709595 306.00431824 C20.7682401 306.0221702 28.91884275 306.06384853 37.06972694 306.13209057 C41.25993591 306.16633744 45.44978119 306.19146689 49.64013672 306.19555664 C53.68644857 306.19984465 57.73194034 306.2283478 61.77799606 306.27343178 C63.31925042 306.28639093 64.86060299 306.29072003 66.40190506 306.28615379 C68.56651886 306.28123588 70.72874657 306.30738539 72.89306641 306.34057617 C74.73839462 306.35056892 74.73839462 306.35056892 76.6210022 306.36076355 C81.11992886 307.21186736 82.77677047 308.79075701 86 312 C87.64710148 316.12835735 87.47446093 319.88501682 85.75 323.9375 C83.40683591 326.69908624 81.80689612 327.92606831 78.16166115 328.26006222 C76.99839994 328.26471272 75.83513874 328.26936323 74.6366272 328.27415466 C73.98830693 328.27939134 73.33998666 328.28462802 72.67202032 328.29002339 C70.49564025 328.30504705 68.3194948 328.30572904 66.14306641 328.30639648 C64.5842499 328.31401639 63.02543716 328.32244359 61.46662903 328.33161926 C57.22899558 328.35358766 52.99143429 328.36236627 48.75375032 328.36744571 C46.10686541 328.37108646 43.45999948 328.37732503 40.8131218 328.3844471 C31.58080971 328.40894953 22.34855388 328.42199525 13.11621094 328.42553711 C4.50748848 328.42917323 -4.10087762 328.45907186 -12.70949113 328.50094169 C-20.0981161 328.53561932 -27.48662284 328.55108511 -34.87532866 328.55178314 C-39.28933265 328.55257682 -43.70297378 328.56135646 -48.11689377 328.58978081 C-52.26864 328.61591849 -56.41972141 328.61819118 -60.57151222 328.60212517 C-62.09490849 328.60030723 -63.61834261 328.60703265 -65.14165688 328.62294388 C-67.22278028 328.6433555 -69.30156668 328.63288658 -71.38265991 328.61473083 C-72.54667517 328.61674216 -73.71069042 328.61875349 -74.90997887 328.62082577 C-78.93269202 327.81260994 -80.41701925 326.1090484 -83 323 C-84.57455739 319.85088521 -84.34799118 317.47991184 -84 314 C-82.22719439 311.02327416 -80.14391985 308.57195993 -77 307 C-74.81525817 306.87913832 -72.62687 306.8225238 -70.43896484 306.79467773 C-69.76567642 306.78477814 -69.092388 306.77487854 -68.3986969 306.76467896 C-66.16947974 306.73304885 -63.94024126 306.70830066 -61.7109375 306.68359375 C-60.16679322 306.66302552 -58.62265459 306.64202908 -57.07852173 306.62062073 C-53.01135833 306.56538651 -48.94414401 306.51598322 -44.87689209 306.46777344 C-40.72777771 306.41756825 -36.57873741 306.36187707 -32.4296875 306.30664062 C-24.28652095 306.19904254 -16.14329248 306.09760126 -8 306 C-8.00054207 305.39993139 -8.00108415 304.79986279 -8.00164264 304.18161029 C-8.03294113 268.54898051 -8.02761154 232.9165371 -7.97527504 197.28392969 C-7.96901034 192.9973109 -7.96304904 188.71069174 -7.95727539 184.42407227 C-7.95612095 183.57074972 -7.95496651 182.71742718 -7.95377708 181.83824638 C-7.9358517 168.05470829 -7.94245669 154.271287 -7.95826416 140.48775103 C-7.97395518 126.32513627 -7.96296709 112.16271977 -7.92765242 98.00013953 C-7.90672107 89.27392912 -7.90614396 80.54821968 -7.93231983 71.82202134 C-7.94831298 65.8231337 -7.93819242 59.82462898 -7.90833985 53.82579609 C-7.89190898 50.37408323 -7.88621885 46.92332599 -7.91181374 43.47164726 C-8.00409321 27.5627759 -6.88829187 14.48389187 0 0 Z " fill="#151515" transform="translate(530,346)"/>
    <path d="M0 0 C4.57354731 0.59404208 8.97295493 1.40874116 13.4375 2.5625 C14.48808594 2.83191406 15.53867187 3.10132813 16.62109375 3.37890625 C17.40613281 3.58386719 18.19117188 3.78882813 19 4 C19.32677413 9.11946139 18.52627896 12.70583887 16.78515625 17.5 C15.92864466 20.22720108 15.4797835 22.86049825 15.0625 25.6875 C14.21115262 31.21779719 12.79675569 36.41184002 11.203125 41.76953125 C9.64582832 47.11844944 8.33639184 52.5300665 7 57.9375 C5.40331092 64.38936689 3.80249055 70.83518506 2.0625 77.25 C0.13937637 84.37357045 -1.65130168 91.52847407 -3.4375 98.6875 C-3.74147705 99.9058252 -4.0454541 101.12415039 -4.35864258 102.37939453 C-5.70723771 107.7918479 -7.05170222 113.20527504 -8.38671875 118.62109375 C-10.55007583 127.3757073 -12.82330023 136.08489876 -15.26171875 144.76708984 C-17.53667544 152.87615122 -19.59763272 161.00277701 -21.3125 169.25 C-22.76550121 176.14204319 -24.42906346 182.9764629 -26.125 189.8125 C-26.52392456 191.43430176 -26.52392456 191.43430176 -26.9309082 193.08886719 C-27.18316162 194.09723633 -27.43541504 195.10560547 -27.6953125 196.14453125 C-28.0358667 197.51121948 -28.0358667 197.51121948 -28.38330078 198.90551758 C-29 201 -29 201 -30 202 C-31.34267413 202.08631874 -32.68974322 202.10706473 -34.03515625 202.09765625 C-34.84404297 202.09443359 -35.65292969 202.09121094 -36.48632812 202.08789062 C-37.33646484 202.07951172 -38.18660156 202.07113281 -39.0625 202.0625 C-39.91650391 202.05798828 -40.77050781 202.05347656 -41.65039062 202.04882812 C-43.76695663 202.03700373 -45.88348685 202.01906769 -48 202 C-47.64572596 191.32383203 -45.16101015 181.31604131 -42.625 171 C-42.22054887 169.32571516 -41.81689836 167.65123671 -41.4140625 165.9765625 C-39.32283413 157.30610218 -37.1788416 148.64884817 -35 140 C-29.83981548 119.59173219 -29.83981548 119.59173219 -25.01953125 99.1015625 C-24.17684558 95.53832582 -23.14340862 92.04056529 -22.11328125 88.52734375 C-19.86368761 80.73027397 -18.09679141 72.86325175 -16.375 64.9375 C-15.78354149 62.21634471 -15.18642244 59.49651964 -14.5859375 56.77734375 C-14.3286084 55.59390381 -14.0712793 54.41046387 -13.80615234 53.19116211 C-13.07936274 50.31415822 -12.13499426 47.7337181 -11 45 C-10.4986202 42.73828124 -10.04462267 40.46580426 -9.625 38.1875 C-7.15392653 25.26594492 -3.70600265 12.61617924 0 0 Z " fill="#181818" transform="translate(643,428)"/>
    <path d="M0 0 C0.20157715 0.78125244 0.4031543 1.56250488 0.61083984 2.36743164 C1.53129991 5.9326944 2.45313761 9.49759959 3.375 13.0625 C3.69210937 14.29162109 4.00921875 15.52074219 4.3359375 16.78710938 C6.179366 23.95489356 6.179366 23.95489356 8.171875 31.08203125 C8.88657852 33.60034979 9.42899559 36.04909699 9.875 38.625 C10.63306967 42.55748642 11.66545502 46.30737364 12.875 50.125 C15.98568028 59.96585101 18.39114393 69.96278932 20.5 80.0625 C21.47416904 84.72382013 22.58912329 89.31273842 23.84375 93.90625 C26.04372551 102.04857007 28.03389445 110.23611344 30 118.4375 C32.02012481 126.84252123 34.04611201 135.24600494 36.125 143.63671875 C36.43695313 144.89830811 36.74890625 146.15989746 37.0703125 147.4597168 C37.94853387 150.80401513 38.93671751 154.0854698 40 157.375 C41.86057655 163.24744473 43.20879321 169.16199081 44.49121094 175.18017578 C45.83829749 181.45279764 47.48533684 187.60308908 49.265625 193.765625 C50 197 50 197 50 203 C43.73 203 37.46 203 31 203 C28.96422404 197.5712641 27.29352435 192.58944462 26.0625 187 C25.71974188 185.49456549 25.37596855 183.98936181 25.03125 182.484375 C24.85980469 181.73220703 24.68835938 180.98003906 24.51171875 180.20507812 C23.58803846 176.22479168 22.57349327 172.26810641 21.57055664 168.30712891 C20.38164855 163.58488959 19.25340297 158.85032848 18.14160156 154.109375 C16.25558971 146.07157716 14.27687014 138.11046259 11.89453125 130.203125 C10.98757572 126.9555113 10.24118946 123.70329453 9.5246582 120.40966797 C7.04541748 109.02292717 4.37025372 97.75132439 0.73510742 86.67529297 C-1.04698241 81.13398637 -2.12982462 75.56270899 -3.1875 69.84765625 C-4.22777377 64.9213598 -5.67837316 60.17112625 -7.1574707 55.36254883 C-8.97231782 49.35874529 -10.22599288 43.34350013 -11.32421875 37.171875 C-11.95024975 34.23350983 -12.84954174 31.7628766 -14 29 C-16.1674061 21.4357527 -17.7023314 13.75547822 -19 6 C-4.26213592 0 -4.26213592 0 0 0 Z " fill="#181818" transform="translate(419,427)"/>
    <path d="M0 0 C6.91426581 3.96400578 11.54926146 9.60481564 14.078125 17.19140625 C14.84648857 29.7807479 13.43569941 37.4796932 5.078125 47.19140625 C-1.807938 53.57361098 -9.68252087 54.49380243 -18.796875 54.33984375 C-26.33056338 53.81359346 -33.21371432 49.33560445 -38.234375 43.87890625 C-44.13352468 36.37235884 -44.93754763 28.58637811 -43.921875 19.19140625 C-41.73060799 10.66111683 -35.9453412 3.64049922 -28.421875 -0.80859375 C-19.48047621 -4.82949717 -8.76929896 -4.16686888 0 0 Z " fill="#FAFAFA" transform="translate(545.921875,812.80859375)"/>
    <path d="M0 0 C4.11358036 2.68465245 6.49284223 5.34291833 8.10546875 10.0859375 C8.71085669 13.71826516 8.71900099 15.99190428 6.8984375 19.23828125 C4.34590888 22.81182131 2.28657398 25.47105556 -1.89453125 27.0859375 C-7.25421829 27.51130949 -10.56392812 27.57447891 -14.89453125 24.0859375 C-17.86236919 20.70589985 -19.72978866 18.4587924 -20.26953125 13.9609375 C-19.78643692 8.9689628 -18.13413654 5.87116052 -14.89453125 2.0859375 C-10.29509131 -1.11367289 -5.29793683 -2.55611797 0 0 Z " fill="#F7F7F7" transform="translate(573.89453125,237.9140625)"/>
    <path d="M0 0 C5.5125 4.2875 5.5125 4.2875 6.8125 8.1875 C7.1765936 13.73992746 7.12766619 17.48210283 3.8125 22.1875 C-0.7386245 25.64635462 -4.3759313 26.90780162 -10.109375 26.64453125 C-13.55547363 25.88664866 -15.08811912 23.90434585 -17.1875 21.1875 C-17.71472656 20.57003906 -18.24195313 19.95257813 -18.78515625 19.31640625 C-21.28755045 15.51750698 -21.01876729 11.5516533 -20.1875 7.1875 C-18.09208633 3.3668624 -15.44214714 0.90892211 -11.6875 -1.25 C-6.97526037 -2.31025392 -4.28871679 -2.4386821 0 0 Z " fill="#F9F9F9" transform="translate(501.1875,238.8125)"/>
    <path d="M0 0 C3.40945122 1.79140657 5.81989462 3.81715881 8 7 C9.0669531 11.49497017 9.03480262 15.3209401 6.58203125 19.30078125 C6.05996094 19.86152344 5.53789063 20.42226563 5 21 C4.34 21 3.68 21 3 21 C3 21.66 3 22.32 3 23 C0.67404054 24.16297973 -0.78723231 24.16600691 -3.375 24.1875 C-4.14585937 24.20167969 -4.91671875 24.21585938 -5.7109375 24.23046875 C-9.31732339 23.86736846 -11.37789806 22.71097364 -13.75 20 C-15.52387164 15.74270807 -15.75480318 11.55101918 -15 7 C-13.6015625 4.69140625 -13.6015625 4.69140625 -12 3 C-11.34 3 -10.68 3 -10 3 C-10 2.34 -10 1.68 -10 1 C-6.68183744 -0.65908128 -3.5583296 -0.7315033 0 0 Z " fill="#181818" transform="translate(803,894)"/>
    <path d="M0 0 C4.21391307 0.09715073 6.9219758 0.44279692 10.1875 3.3125 C12.47607333 6.15348759 13.14838363 8.07780179 13.75 11.6875 C12.99907392 16.5268014 10.73825928 19.05610418 7.1875 22.3125 C3.70732692 24.05258654 -0.01556815 23.89714868 -3.8125 23.3125 C-7.50004521 20.56645569 -9.71762682 17.80148005 -10.8125 13.3125 C-10.37114509 6.25082145 -7.58144828 0.03409947 0 0 Z " fill="#1A1A1A" transform="translate(261.8125,894.6875)"/>
    <path d="M0 0 C3.69186542 2.59216083 4.82883761 4.04149064 5.625 8.5 C5 12 5 12 3 14.9375 C-1.16917409 17.80380719 -3.01097559 17.79190864 -8 17 C-10.65041483 14.87966814 -11.7168575 13.36178059 -12.41015625 10.02734375 C-12.68092202 6.31299276 -12.31060518 4.37649113 -9.9375 1.5 C-6.22693494 -0.39475662 -4.11629392 -0.66154724 0 0 Z " fill="#161616" transform="translate(535,830)"/>
    <path d="M0 0 C0.66 0 1.32 0 2 0 C2.66 2.31 3.32 4.62 4 7 C2.02 7.33 0.04 7.66 -2 8 C-1.34 5.36 -0.68 2.72 0 0 Z " fill="#323232" transform="translate(530,346)"/>
    <path d="M0 0 C0.33 0 0.66 0 1 0 C0.88541307 1.43836751 0.75790884 2.87570966 0.625 4.3125 C0.55539062 5.11300781 0.48578125 5.91351563 0.4140625 6.73828125 C0 9 0 9 -2 12 C-2.05422947 10.5629191 -2.09289723 9.12524538 -2.125 7.6875 C-2.14820313 6.88699219 -2.17140625 6.08648437 -2.1953125 5.26171875 C-2 3 -2 3 0 0 Z " fill="#2C2C2C" transform="translate(650,477)"/>
    <path d="M0 0 C1.051875 -0.02126953 1.051875 -0.02126953 2.125 -0.04296875 C4 0.1875 4 0.1875 6 2.1875 C4.906875 2.166875 3.81375 2.14625 2.6875 2.125 C-0.94384191 2.00205548 -0.94384191 2.00205548 -4 3.1875 C-4.66 2.5275 -5.32 1.8675 -6 1.1875 C-3.77109005 0.07304502 -2.46944894 0.02269714 0 0 Z " fill="#616161" transform="translate(799,893.8125)"/>
    <path d="M0 0 C0.66 1.32 1.32 2.64 2 4 C1.01 4.33 0.02 4.66 -1 5 C-1.33 6.98 -1.66 8.96 -2 11 C-2.95465783 8.83032311 -3.14401212 7.43671207 -2.3984375 5.17578125 C-1.64129615 3.4315257 -0.82390802 1.71372869 0 0 Z " fill="#404040" transform="translate(653,564)"/>
</svg>
